<svg width="14" height="13" viewBox="0 0 14 13" fill="none" xmlns="http://www.w3.org/2000/svg">
<path d="M13.5 3.27139H11.11C10.91 2.55672 10.55 1.90244 10.045 1.35889C9.23 0.483159 8.15 0 7 0C5.065 0 3.425 1.37902 2.89 3.27139H0.5C0.225 3.27139 0 3.49787 0 3.77468V12.4967C0 12.7735 0.225 13 0.5 13H13.5C13.775 13 14 12.7735 14 12.4967V3.77468C14 3.49787 13.775 3.27139 13.5 3.27139ZM7 1.00658C7.87 1.00658 8.695 1.37398 9.315 2.04839C9.645 2.4007 9.895 2.81843 10.06 3.27139H3.945C4.43 1.94774 5.615 1.00658 7 1.00658ZM13 11.9934H1V4.27797H2.725C2.72 4.38366 2.71 4.48432 2.71 4.59001V4.99264C2.085 5.20403 1.625 5.79791 1.625 6.49748C1.625 7.37824 2.335 8.09292 3.21 8.09292C4.085 8.09292 4.795 7.37824 4.795 6.49748C4.795 5.79791 4.34 5.20403 3.71 4.99264V4.59001C3.71 4.48432 3.715 4.37863 3.725 4.27797H10.28C10.29 4.38366 10.295 4.48432 10.295 4.59001V4.99264C9.67 5.20403 9.21 5.79791 9.21 6.49748C9.21 7.37824 9.92 8.09292 10.795 8.09292C11.67 8.09292 12.38 7.37824 12.38 6.49748C12.38 5.79791 11.925 5.20403 11.295 4.99264V4.59001C11.295 4.48432 11.285 4.37863 11.28 4.27797H13.005V11.9934H13ZM3.21 5.91367C3.53 5.91367 3.795 6.17538 3.795 6.50252C3.795 6.82966 3.535 7.09137 3.21 7.09137C2.885 7.09137 2.625 6.82966 2.625 6.50252C2.625 6.17538 2.885 5.91367 3.21 5.91367ZM10.79 5.91367C11.11 5.91367 11.375 6.17538 11.375 6.50252C11.375 6.82966 11.115 7.09137 10.79 7.09137C10.465 7.09137 10.205 6.82966 10.205 6.50252C10.205 6.17538 10.465 5.91367 10.79 5.91367Z" fill="#000000"/>
</svg>
