<svg width="24" height="24" viewBox="0 0 24 24" fill="none" xmlns="http://www.w3.org/2000/svg">
<mask id="mask0_2468_12308" style="mask-type:alpha" maskUnits="userSpaceOnUse" x="4" y="4" width="16" height="16">
<rect x="4" y="4" width="16" height="16" fill="#D9D9D9"/>
</mask>
<g mask="url(#mask0_2468_12308)">
<path d="M4.66602 18V14.6667H5.99935V16.6667H7.99935V18H4.66602ZM15.9993 18V16.6667H17.9993V14.6667H19.3327V18H15.9993ZM6.66602 16V8H7.99935V16H6.66602ZM8.66602 16V8H9.33268V16H8.66602ZM10.666 16V8H11.9993V16H10.666ZM12.666 16V8H14.666V16H12.666ZM15.3327 16V8H15.9993V16H15.3327ZM16.666 16V8H17.3327V16H16.666ZM4.66602 9.33333V6H7.99935V7.33333H5.99935V9.33333H4.66602ZM17.9993 9.33333V7.33333H15.9993V6H19.3327V9.33333H17.9993Z" fill="#64748B"/>
</g>
</svg>
