<svg width="24" height="24" viewBox="0 0 24 24" fill="none" xmlns="http://www.w3.org/2000/svg">
<mask id="mask0_2468_6830" style="mask-type:alpha" maskUnits="userSpaceOnUse" x="4" y="4" width="16" height="16">
<rect x="4" y="4" width="16" height="16" fill="#D9D9D9"/>
</mask>
<g mask="url(#mask0_2468_6830)">
<path d="M18.6673 7.99996V16C18.6673 16.3666 18.5368 16.6805 18.2757 16.9416C18.0145 17.2027 17.7007 17.3333 17.334 17.3333H6.66732C6.30065 17.3333 5.98676 17.2027 5.72565 16.9416C5.46454 16.6805 5.33398 16.3666 5.33398 16V7.99996C5.33398 7.63329 5.46454 7.3194 5.72565 7.05829C5.98676 6.79718 6.30065 6.66663 6.66732 6.66663H17.334C17.7007 6.66663 18.0145 6.79718 18.2757 7.05829C18.5368 7.3194 18.6673 7.63329 18.6673 7.99996ZM6.66732 9.33329H17.334V7.99996H6.66732V9.33329ZM6.66732 12V16H17.334V12H6.66732Z" fill="#64748B"/>
</g>
</svg>
