<svg width="24" height="24" viewBox="0 0 24 24" fill="none" xmlns="http://www.w3.org/2000/svg">
<mask id="mask0_2498_133" style="mask-type:alpha" maskUnits="userSpaceOnUse" x="4" y="4" width="16" height="16">
<rect x="4" y="4" width="16" height="16" fill="#D9D9D9"/>
</mask>
<g mask="url(#mask0_2498_133)">
<path d="M11.9993 12C12.366 12 12.6799 11.8695 12.941 11.6084C13.2021 11.3473 13.3327 11.0334 13.3327 10.6667C13.3327 10.3 13.2021 9.98615 12.941 9.72504C12.6799 9.46393 12.366 9.33337 11.9993 9.33337C11.6327 9.33337 11.3188 9.46393 11.0577 9.72504C10.7966 9.98615 10.666 10.3 10.666 10.6667C10.666 11.0334 10.7966 11.3473 11.0577 11.6084C11.3188 11.8695 11.6327 12 11.9993 12ZM11.9993 16.9C13.3549 15.6556 14.3605 14.525 15.016 13.5084C15.6716 12.4917 15.9993 11.5889 15.9993 10.8C15.9993 9.58893 15.6132 8.59726 14.841 7.82504C14.0688 7.05282 13.1216 6.66671 11.9993 6.66671C10.8771 6.66671 9.9299 7.05282 9.15768 7.82504C8.38546 8.59726 7.99935 9.58893 7.99935 10.8C7.99935 11.5889 8.32713 12.4917 8.98268 13.5084C9.63824 14.525 10.6438 15.6556 11.9993 16.9ZM11.9993 18.6667C10.2105 17.1445 8.87435 15.7306 7.99102 14.425C7.10768 13.1195 6.66602 11.9112 6.66602 10.8C6.66602 9.13337 7.20213 7.8056 8.27435 6.81671C9.34657 5.82782 10.5882 5.33337 11.9993 5.33337C13.4105 5.33337 14.6521 5.82782 15.7243 6.81671C16.7966 7.8056 17.3327 9.13337 17.3327 10.8C17.3327 11.9112 16.891 13.1195 16.0077 14.425C15.1243 15.7306 13.7882 17.1445 11.9993 18.6667Z" fill="#64748B"/>
</g>
</svg>
