<svg width="24" height="24" viewBox="0 0 24 24" fill="none" xmlns="http://www.w3.org/2000/svg">
<mask id="mask0_2468_243" style="mask-type:alpha" maskUnits="userSpaceOnUse" x="4" y="4" width="16" height="16">
<rect x="4" y="4" width="16" height="16" fill="#D9D9D9"/>
</mask>
<g mask="url(#mask0_2468_243)">
<path d="M14.3521 15.3155L12.294 13.1076C12.2188 13.0269 12.1299 13.0122 12.0821 13.0122C12.0342 13.0122 11.9453 13.0269 11.8701 13.1076L9.80513 15.3228C9.57265 15.5722 9.21026 15.9757 8 15.9757L10.5368 18.6897C10.9214 19.1018 11.4427 19.3333 11.9863 19.3333C12.5299 19.3333 13.0513 19.1018 13.4359 18.6897L15.9795 15.9683C15.3573 15.9683 14.8376 15.8363 14.3521 15.3155ZM9.80513 8.67708L11.8701 10.8923C11.9248 10.951 12.0068 10.9877 12.0821 10.9877C12.1573 10.9877 12.2393 10.951 12.294 10.8923L14.3385 8.69909C14.8239 8.15628 15.3778 8.03158 16 8.03158L13.4564 5.31019C13.0718 4.8981 12.5504 4.66663 12.0068 4.66663C11.4632 4.66663 10.9419 4.8981 10.5573 5.31019L8.02051 8.02424C9.22393 8.02424 9.59316 8.44969 9.80513 8.67708Z" fill="#64748B"/>
<path d="M18.6764 10.3861L17.0266 8.68171H16.1027C15.7068 8.68171 15.3108 8.84762 15.0395 9.14174L12.8398 11.4042C12.6345 11.6153 12.3632 11.7209 12.0919 11.7209C11.8125 11.7169 11.5451 11.6036 11.3439 11.4042L9.12955 9.11911C8.85091 8.83254 8.46963 8.66663 8.06634 8.66663H6.98847L5.30934 10.4012C4.8974 10.8254 4.66602 11.4004 4.66602 12C4.66602 12.5995 4.8974 13.1745 5.30934 13.5988L6.98847 15.3333H8.07367C8.46963 15.3333 8.85091 15.1674 9.13688 14.8808L11.3513 12.6033C11.5566 12.3921 11.8279 12.2865 12.0992 12.2865C12.3705 12.2865 12.6418 12.3921 12.8471 12.6033L15.0542 14.8733C15.3328 15.1598 15.7141 15.3258 16.1174 15.3258H17.0413L18.6911 13.6214C19.1047 13.1895 19.3354 12.6068 19.3327 12.0006C19.3299 11.3944 19.094 10.8139 18.6764 10.3861Z" fill="#64748B"/>
</g>
</svg>
