<svg width="24" height="24" viewBox="0 0 24 24" fill="none" xmlns="http://www.w3.org/2000/svg">
<mask id="mask0_2513_9830" style="mask-type:alpha" maskUnits="userSpaceOnUse" x="4" y="4" width="16" height="16">
<rect x="4" y="4" width="16" height="16" fill="#D9D9D9"/>
</mask>
<g mask="url(#mask0_2513_9830)">
<path d="M7.8987 15.4C8.46536 14.9667 9.0987 14.625 9.7987 14.375C10.4987 14.125 11.232 14 11.9987 14C12.7654 14 13.4987 14.125 14.1987 14.375C14.8987 14.625 15.532 14.9667 16.0987 15.4C16.4876 14.9445 16.7904 14.4278 17.007 13.85C17.2237 13.2723 17.332 12.6556 17.332 12C17.332 10.5223 16.8126 9.26393 15.7737 8.22504C14.7348 7.18615 13.4765 6.66671 11.9987 6.66671C10.5209 6.66671 9.26259 7.18615 8.2237 8.22504C7.18481 9.26393 6.66536 10.5223 6.66536 12C6.66536 12.6556 6.7737 13.2723 6.99036 13.85C7.20703 14.4278 7.50981 14.9445 7.8987 15.4ZM11.9987 12.6667C11.3431 12.6667 10.7904 12.4417 10.3404 11.9917C9.89037 11.5417 9.66536 10.9889 9.66536 10.3334C9.66536 9.67782 9.89037 9.12504 10.3404 8.67504C10.7904 8.22504 11.3431 8.00004 11.9987 8.00004C12.6543 8.00004 13.207 8.22504 13.657 8.67504C14.107 9.12504 14.332 9.67782 14.332 10.3334C14.332 10.9889 14.107 11.5417 13.657 11.9917C13.207 12.4417 12.6543 12.6667 11.9987 12.6667ZM11.9987 18.6667C11.0765 18.6667 10.2098 18.4917 9.3987 18.1417C8.58759 17.7917 7.88203 17.3167 7.28203 16.7167C6.68203 16.1167 6.20703 15.4112 5.85703 14.6C5.50703 13.7889 5.33203 12.9223 5.33203 12C5.33203 11.0778 5.50703 10.2112 5.85703 9.40004C6.20703 8.58893 6.68203 7.88337 7.28203 7.28337C7.88203 6.68337 8.58759 6.20837 9.3987 5.85837C10.2098 5.50837 11.0765 5.33337 11.9987 5.33337C12.9209 5.33337 13.7876 5.50837 14.5987 5.85837C15.4098 6.20837 16.1154 6.68337 16.7154 7.28337C17.3154 7.88337 17.7904 8.58893 18.1404 9.40004C18.4904 10.2112 18.6654 11.0778 18.6654 12C18.6654 12.9223 18.4904 13.7889 18.1404 14.6C17.7904 15.4112 17.3154 16.1167 16.7154 16.7167C16.1154 17.3167 15.4098 17.7917 14.5987 18.1417C13.7876 18.4917 12.9209 18.6667 11.9987 18.6667Z" fill="black"/>
</g>
</svg>
