<svg width="19" height="22" viewBox="0 0 19 22" fill="none" xmlns="http://www.w3.org/2000/svg">
          <path d="M18.9963 20.9939L17.4101 5.91446C17.3889 5.74451 17.2436 5.61233 17.0723 5.61097H13.9985V4.55016C13.9991 2.0414 11.9985 0 9.53991 0C7.08131 0 5.08072 2.0414 5.08072 4.55016V5.61097H1.92616C1.75631 5.61233 1.61157 5.74451 1.58975 5.91716L0.00356191 20.9939C-0.0103173 21.0938 0.0167802 21.1909 0.0775845 21.2644C0.135084 21.3372 0.221003 21.3777 0.309566 21.375H18.687C18.7782 21.377 18.8655 21.3372 18.9209 21.2665C18.983 21.1909 19.0102 21.0938 18.9969 20.9987L18.9963 20.9939ZM13.6634 8.04892C13.974 8.04892 14.2271 8.30654 14.2271 8.62418C14.2271 8.94183 13.974 9.19944 13.6634 9.19944C13.3527 9.19944 13.0996 8.94183 13.0996 8.62418C13.0956 8.31194 13.3429 8.05297 13.6502 8.04892H13.6634ZM5.75022 4.55083C5.74957 2.41906 7.44877 0.684513 9.53793 0.683164H9.53925C10.5505 0.683164 11.5015 1.0851 12.2172 1.8148C12.9331 2.5445 13.3277 3.51563 13.3277 4.54812V5.61165H5.75022V4.55083ZM5.40193 8.04892H5.41448C5.7251 8.04892 5.97824 8.30654 5.97824 8.62418C5.97824 8.94183 5.72577 9.19944 5.41448 9.19944C5.10319 9.19944 4.85071 8.94183 4.85071 8.62418C4.84873 8.4738 4.90491 8.33015 5.00934 8.22157C5.1131 8.11231 5.25255 8.05094 5.40193 8.04892ZM0.712063 20.6635L2.22225 6.26852H5.08005V7.40353L4.98621 7.43724C4.35834 7.66384 4.02788 8.36926 4.24994 9.00994C4.47201 9.65061 5.16333 9.98781 5.7912 9.76121C6.09522 9.65129 6.3391 9.42738 6.47855 9.13065C6.61801 8.83392 6.63519 8.49942 6.52746 8.18853C6.40518 7.83581 6.13686 7.56201 5.7912 7.43724L5.69735 7.40353V6.26852H13.2747V7.40353L13.1809 7.43724C12.5531 7.66384 12.2226 8.36926 12.4446 9.00994C12.6667 9.65061 13.3587 9.98781 13.9859 9.76121C14.2899 9.65129 14.5344 9.42738 14.6732 9.13065C14.812 8.83392 14.8299 8.49942 14.7221 8.18853C14.5998 7.83581 14.3316 7.56201 13.9859 7.43724L13.8921 7.40353V6.26852H16.8556L16.8688 6.39665L18.3658 20.6635H0.712063Z" fill="black"></path>
        </svg>