<svg width="18" height="18" viewBox="0 0 18 18" fill="none" xmlns="http://www.w3.org/2000/svg">
<path fill-rule="evenodd" clip-rule="evenodd" d="M5 5.75862V15H14V5.75862H11.75V5.31034C11.75 4.66667 11.5317 4.12069 11.0951 3.67241C10.6586 3.22414 10.1269 3 9.5 3C8.87313 3 8.34142 3.22414 7.90485 3.67241C7.46828 4.12069 7.25 4.66667 7.25 5.31034V5.75862H5ZM11.2799 5.31034V5.75862H7.72015V5.31034C7.72015 4.7931 7.89086 4.3592 8.23228 4.00862C8.57369 3.65805 8.99627 3.48276 9.5 3.48276C10.0037 3.48276 10.4263 3.65805 10.7677 4.00862C11.1091 4.3592 11.2799 4.7931 11.2799 5.31034ZM13.5299 14.5172H5.47015V6.24138H13.5299V14.5172Z" fill="#433D3F"/>
</svg>
