              <svg width="20" height="20" viewBox="0 0 20 20" fill="none" xmlns="http://www.w3.org/2000/svg">
                <path d="M10.06 10.6C9.98803 10.672 9.94003 10.714 9.89803 10.756C8.17003 12.484 6.44203 14.212 4.72004 15.934C4.54004 16.114 4.49204 16.114 4.31204 15.934C4.23404 15.856 4.15604 15.778 4.07804 15.7C3.98804 15.604 3.98204 15.508 4.07804 15.412C4.10204 15.388 4.13204 15.358 4.15604 15.334C5.87803 13.612 7.59403 11.896 9.31603 10.174C9.35803 10.132 9.41803 10.102 9.47203 10.066C9.47203 10.042 9.47803 10.018 9.48404 9.994C9.43003 9.958 9.37003 9.934 9.32203 9.892C7.59403 8.176 5.87204 6.454 4.15604 4.738C3.94604 4.528 3.94604 4.498 4.15604 4.282C4.22804 4.21 4.29404 4.144 4.36604 4.072C4.46204 3.976 4.55804 3.976 4.65404 4.072C4.68404 4.102 4.71404 4.132 4.74404 4.162C6.46004 5.878 8.17603 7.594 9.89203 9.31C9.93403 9.352 9.96403 9.412 10 9.466C10.024 9.466 10.048 9.466 10.078 9.472C10.114 9.418 10.138 9.358 10.18 9.316C11.884 7.606 13.588 5.902 15.292 4.198C15.454 4.036 15.52 4.036 15.682 4.198C15.766 4.282 15.844 4.36 15.928 4.444C16.018 4.54 16.024 4.636 15.928 4.732C15.898 4.762 15.868 4.792 15.838 4.822C14.146 6.514 12.46 8.2 10.768 9.892C10.726 9.934 10.666 9.97 10.618 10.006C10.612 10.03 10.6 10.06 10.594 10.084C10.648 10.114 10.714 10.132 10.756 10.174C12.46 11.872 14.158 13.576 15.862 15.274C16.048 15.46 16.048 15.508 15.862 15.694C15.784 15.772 15.706 15.85 15.628 15.928C15.538 16.018 15.448 16.018 15.352 15.928C15.316 15.898 15.286 15.862 15.25 15.826C13.558 14.134 11.86 12.442 10.168 10.744C10.126 10.702 10.102 10.654 10.06 10.594V10.6Z" fill="#433D3F"/>
              </svg>