<?xml version="1.0" encoding="UTF-8" standalone="no"?>
<svg
   width="90"
   height="90"
   viewBox="0 0 90 90"
   fill="none"
   version="1.1"
   id="svg1"
   xmlns="http://www.w3.org/2000/svg"
   xmlns:svg="http://www.w3.org/2000/svg">
  <defs
     id="defs1" />
  <path
     style="fill:#ffffff;stroke:#e1de19"
     id="path2"
     d="M 67.283653,43.810097 A 23.689903,29.53125 0 0 1 43.747377,73.340726 23.689903,29.53125 0 0 1 19.905839,44.193105 23.689903,29.53125 0 0 1 43.132894,14.284435 23.689903,29.53125 0 0 1 67.275683,43.044145 L 43.59375,43.810097 Z" />
  <path
     d="M40.76 0.100412C37.1371 0.487319 32.7932 1.47217 29.5925 2.63289C26.9369 3.61774 22.4523 5.88642 20.2188 7.3637C7.04636 16.1922 -0.533495 30.8595 0.0292779 46.4413C0.0820379 48.0768 0.240318 50.24 0.398598 51.2424C1.82312 61.1085 6.16702 69.8139 13.1489 76.7783C16.6311 80.278 20.465 83.0567 24.633 85.1495C31.3335 88.5086 37.4537 89.9683 44.9104 89.9683C48.7619 89.9683 50.802 89.7924 53.8621 89.1769C57.9949 88.3503 61.1605 87.2599 65.1175 85.3078C78.6944 78.6249 88.1912 65.0655 89.8092 50.0114C90.0906 47.4613 90.0554 41.7984 89.7389 39.3714C87.9978 26.1638 80.7521 14.5918 69.6373 7.29336C64.0975 3.65292 58.0477 1.36665 51.2241 0.346625C49.1137 0.0300653 42.8352 -0.110628 40.76 0.100412ZM49.3071 20.2371C55.2162 21.2572 59.0501 24.3876 60.3867 29.2943C60.6329 30.156 60.7033 31.0881 60.7033 33.0754C60.7033 35.5375 60.6681 35.8013 60.2108 36.9972C59.2084 39.688 57.8191 41.4642 54.1962 44.7705C52.9124 45.9488 51.5406 47.3382 51.1185 47.8658C50.292 48.9386 49.6237 50.6269 49.4654 52.0162C49.4126 52.5263 49.3247 53.2121 49.2719 53.5111L49.184 54.0915H44.4532H39.7048V53.0714C39.7048 51.5062 40.0389 49.0265 40.4258 47.5844C41.1117 45.0695 41.78 44.0847 44.8225 41.0773C48.7971 37.1555 49.5533 35.7662 49.3247 32.8995C49.1664 31.0529 48.5157 29.8922 47.2671 29.2415C46.3877 28.7843 46.1591 28.7491 44.8577 28.8018C43.5914 28.8546 43.3452 28.925 42.6594 29.3822C41.7273 30.0505 40.8128 31.5278 40.6721 32.6182C40.4434 34.201 41.0766 34.0427 34.7454 34.0427H29.1L29.2056 32.583C29.698 26.0583 33.9715 21.4682 40.7424 20.2547C42.6066 19.903 47.355 19.903 49.3071 20.2371ZM47.4605 59.2268C49.6061 60.2116 50.6437 61.7065 50.7492 63.9752C50.8547 65.8745 50.4678 66.9297 49.2719 68.108C47.9529 69.3743 46.7922 69.8139 44.6291 69.8139C43.3101 69.8139 42.7473 69.726 41.9559 69.4095C40.7776 68.9522 39.5641 67.8442 38.9837 66.7363C38.4561 65.6811 38.3154 63.6059 38.7199 62.41C39.2475 60.8447 40.7072 59.5257 42.5714 58.9102C43.7849 58.5057 46.2646 58.664 47.4605 59.2268Z"
     fill="black"
     id="path1" />
</svg>
