<svg width="90" height="82" viewBox="0 0 90 82" fill="none" xmlns="http://www.w3.org/2000/svg"><rect width="43.6364" height="81.8182" fill="black"></rect><rect x="8.18164" y="13.6365" width="8.18182" height="8.18182" fill="white"></rect><rect x="8.18164" y="30" width="8.18182" height="8.18182" fill="white"></rect><rect x="8.18164" y="46.3635" width="8.18182" height="8.18182" fill="white"></rect><rect x="8.18164" y="62.7273" width="8.18182" height="8.18182" fill="white"></rect><rect x="27.2729" y="13.6365" width="8.18182" height="8.18182" fill="white"></rect><rect x="27.2729" y="30" width="8.18182" height="8.18182" fill="white"></rect><rect x="27.2729" y="46.3635" width="8.18182" height="8.18182" fill="white"></rect><rect x="27.2729" y="62.7273" width="8.18182" height="8.18182" fill="white"></rect><rect x="43.6362" y="19.0908" width="46.3636" height="62.7273" fill="black"></rect><rect x="43.6362" y="30" width="35.4545" height="40.9091" fill="white"></rect><rect x="43.6362" y="38.1819" width="8.18182" height="8.18182" fill="black"></rect><rect x="43.6362" y="54.5454" width="8.18182" height="8.18182" fill="black"></rect><rect x="62.7271" y="38.1819" width="8.18182" height="8.18182" fill="black"></rect><rect x="62.7271" y="54.5454" width="8.18182" height="8.18182" fill="black"></rect></svg>