<svg width="12" height="12" viewBox="0 0 12 12" fill="none" xmlns="http://www.w3.org/2000/svg">
<path d="M11.3556 12L8.00685 8.65123C7.54389 9.03189 7.07578 9.32253 6.60253 9.52315C6.12928 9.72377 5.58401 9.82407 4.96672 9.82407C3.70129 9.82407 2.62876 9.38426 1.74913 8.50463C0.869502 7.625 0.429688 6.55247 0.429688 5.28704C0.429688 4.02161 0.869502 2.94907 1.74913 2.06944C2.62876 1.18981 3.70129 0.75 4.96672 0.75C6.23216 0.75 7.30469 1.18981 8.18432 2.06944C9.06395 2.94907 9.50376 4.02161 9.50376 5.28704C9.50376 5.90432 9.40345 6.45216 9.20284 6.93056C9.00222 7.40895 8.71158 7.87963 8.33092 8.34259L11.6643 11.6759L11.3556 12ZM4.96672 9.39198C6.09841 9.39198 7.06549 8.99074 7.86796 8.18827C8.67043 7.3858 9.07166 6.41872 9.07166 5.28704C9.07166 4.15535 8.67043 3.18827 7.86796 2.3858C7.06549 1.58333 6.09841 1.1821 4.96672 1.1821C3.83504 1.1821 2.86796 1.58333 2.06549 2.3858C1.26302 3.18827 0.861786 4.15535 0.861786 5.28704C0.861786 6.41872 1.26302 7.3858 2.06549 8.18827C2.86796 8.99074 3.83504 9.39198 4.96672 9.39198Z" fill="#716D6E"/>
</svg>
