<svg xmlns="http://www.w3.org/2000/svg" width="418.862" height="420.875" viewBox="0 0 418.862 420.875">
  <g id="Page-1" transform="translate(0 0)">
    <g id="Artboard" transform="translate(-156 -72)">
      <g id="Group-3" transform="translate(156 72)">
        <path id="Fill-1" d="M305.389,252.211c-5.211-2.607-30.83-15.213-35.607-16.953s-8.251-2.608-11.725,2.607-13.46,16.955-16.5,20.434-6.079,3.913-11.289,1.3-22-8.111-41.907-25.866c-15.492-13.817-25.95-30.881-28.99-36.1s-.323-8.036,2.286-10.635c2.344-2.335,5.211-6.087,7.816-9.129s3.474-5.218,5.211-8.693.869-6.522-.434-9.13-11.725-28.259-16.067-38.694c-4.23-10.159-8.526-8.783-11.725-8.945-3.036-.151-6.514-.183-9.987-.183a19.144,19.144,0,0,0-13.9,6.52c-4.777,5.218-18.239,17.825-18.239,43.474s18.673,50.428,21.279,53.906,36.745,56.113,89.02,78.686a299.208,299.208,0,0,0,29.707,10.976c12.484,3.968,23.844,3.408,32.822,2.066,10.012-1.5,30.831-12.606,35.174-24.778s4.342-22.607,3.039-24.78-4.776-3.479-9.987-6.088M210.307,382.036h-.07a173.079,173.079,0,0,1-88.227-24.162l-6.329-3.757-65.607,17.21,17.511-63.966L63.464,300.8a172.93,172.93,0,0,1-26.5-92.25c.038-95.574,77.8-173.33,173.415-173.33A173.372,173.372,0,0,1,383.65,208.692c-.039,95.582-77.8,173.344-173.343,173.344M357.835,61.162A207.2,207.2,0,0,0,210.3,0C95.352,0,1.794,93.551,1.748,208.539A208.189,208.189,0,0,0,29.587,312.8L0,420.875l110.558-29a208.376,208.376,0,0,0,99.664,25.385h.086c114.941,0,208.508-93.561,208.554-208.552A207.3,207.3,0,0,0,357.835,61.162" fill="#000" fill-rule="evenodd"/>
      </g>
    </g>
  </g>
</svg>