<svg width="16" height="16" viewBox="0 0 16 16" fill="none" xmlns="http://www.w3.org/2000/svg"><path d="M2 4.66675H4" stroke="black" stroke-width="1.5" stroke-linecap="round" stroke-linejoin="round"></path><path d="M2 11.3335H6" stroke="black" stroke-width="1.5" stroke-linecap="round" stroke-linejoin="round"></path><path d="M12 11.3335L14 11.3335" stroke="black" stroke-width="1.5" stroke-linecap="round" stroke-linejoin="round"></path><path d="M10 4.66675L14 4.66675" stroke="black" stroke-width="1.5" stroke-linecap="round" stroke-linejoin="round"></path><path d="M4 4.66675C4 4.04549 4 3.73486 4.10149 3.48984C4.23682 3.16313 4.49638 2.90357 4.82309 2.76824C5.06812 2.66675 5.37874 2.66675 6 2.66675C6.62126 2.66675 6.93188 2.66675 7.17691 2.76824C7.50362 2.90357 7.76318 3.16313 7.89851 3.48984C8 3.73486 8 4.04549 8 4.66675C8 5.288 8 5.59863 7.89851 5.84366C7.76318 6.17036 7.50362 6.42993 7.17691 6.56525C6.93188 6.66675 6.62126 6.66675 6 6.66675C5.37874 6.66675 5.06812 6.66675 4.82309 6.56525C4.49638 6.42993 4.23682 6.17036 4.10149 5.84366C4 5.59863 4 5.288 4 4.66675Z" stroke="black" stroke-width="1.5"></path><path d="M8 11.3335C8 10.7122 8 10.4016 8.10149 10.1566C8.23682 9.82988 8.49638 9.57032 8.82309 9.43499C9.06812 9.3335 9.37874 9.3335 10 9.3335C10.6213 9.3335 10.9319 9.3335 11.1769 9.43499C11.5036 9.57032 11.7632 9.82988 11.8985 10.1566C12 10.4016 12 10.7122 12 11.3335C12 11.9548 12 12.2654 11.8985 12.5104C11.7632 12.8371 11.5036 13.0967 11.1769 13.232C10.9319 13.3335 10.6213 13.3335 10 13.3335C9.37874 13.3335 9.06812 13.3335 8.82309 13.232C8.49638 13.0967 8.23682 12.8371 8.10149 12.5104C8 12.2654 8 11.9548 8 11.3335Z" stroke="black" stroke-width="1.5"></path></svg>