<svg xmlns="http://www.w3.org/2000/svg" width="12" height="12" viewBox="0 0 12 12" fill="none">
  <mask id="mask0_2081_6792" style="mask-type:alpha" maskUnits="userSpaceOnUse" x="0" y="0" width="12" height="12">
    <rect width="12" height="12" fill="#D9D9D9"/>
  </mask>
  <g mask="url(#mask0_2081_6792)">
    <path d="M11.3566 12L8.00782 8.65123C7.54486 9.03189 7.07675 9.32253 6.6035 9.52315C6.13025 9.72377 5.58498 9.82407 4.9677 9.82407C3.70227 9.82407 2.62974 9.38426 1.75011 8.50463C0.870479 7.625 0.430664 6.55247 0.430664 5.28704C0.430664 4.02161 0.870479 2.94907 1.75011 2.06944C2.62974 1.18981 3.70227 0.75 4.9677 0.75C6.23313 0.75 7.30566 1.18981 8.18529 2.06944C9.06492 2.94907 9.50474 4.02161 9.50474 5.28704C9.50474 5.90432 9.40443 6.45216 9.20381 6.93056C9.00319 7.40895 8.71256 7.87963 8.3319 8.34259L11.6652 11.6759L11.3566 12ZM4.9677 9.39198C6.09939 9.39198 7.06647 8.99074 7.86894 8.18827C8.6714 7.3858 9.07264 6.41872 9.07264 5.28704C9.07264 4.15535 8.6714 3.18827 7.86894 2.3858C7.06647 1.58333 6.09939 1.1821 4.9677 1.1821C3.83601 1.1821 2.86894 1.58333 2.06647 2.3858C1.264 3.18827 0.862763 4.15535 0.862763 5.28704C0.862763 6.41872 1.264 7.3858 2.06647 8.18827C2.86894 8.99074 3.83601 9.39198 4.9677 9.39198Z" fill="#716D6E"/>
  </g>
</svg>
