<svg width="120" height="46" viewBox="0 0 120 46" fill="none" xmlns="http://www.w3.org/2000/svg"><path fill-rule="evenodd" clip-rule="evenodd" d="M19.6538 15.9394H0C0.0451501 16.1059 0.121905 16.1194 0.320566 16.3669L2.16721 18.356C2.32072 18.509 2.37941 18.608 2.51938 18.7565L5.49477 21.9606C5.58056 22.0686 5.75213 22.3431 5.91015 22.3431H38.0932C38.2015 22.3431 38.5582 21.9201 38.6666 21.794L42.7978 17.1679C42.9468 17.0239 43.001 16.9204 43.15 16.7719L43.8633 15.9439H25.6137C25.722 15.7819 26.3316 15.3859 26.5392 15.2284L27.9299 14.1844C28.1105 14.0044 28.2008 13.9639 28.3994 13.8108L35.944 8.23971C36.3684 7.9292 36.2601 8.0372 36.2601 6.91667V0.373509C36.0343 0.39151 36.1427 0.40051 35.8176 0.634516L34.9552 1.27353C34.8153 1.39053 34.6618 1.48504 34.5218 1.58854L27.7131 6.62867C27.4287 6.84017 27.1668 7.03818 26.8824 7.24968L22.6067 10.4223C22.2996 10.2153 22.0152 10.0038 21.6946 9.78775L18.8773 7.8257C18.7057 7.69969 18.5793 7.62319 18.4077 7.49719C17.3422 6.72317 16.1773 5.98515 15.1163 5.21563C14.4842 4.75662 13.8791 4.36061 13.247 3.9016C12.0777 3.05558 10.6961 2.16455 9.48604 1.29153L8.07736 0.310508C7.91933 0.207005 7.75679 0.0450011 7.58974 0L7.58071 7.00668C7.51298 7.57369 7.41365 7.34868 8.2715 7.9697L10.3349 9.41874C11.4591 10.1928 13.4141 11.5248 14.4706 12.3123C14.6467 12.4428 14.8092 12.5643 14.9898 12.6813C15.184 12.8073 15.333 12.9243 15.5136 13.0458L19.6403 15.9439L19.6538 15.9394ZM0 29.7277H19.6538L16.0509 32.2613C15.8567 32.3873 15.7077 32.5043 15.5271 32.6258C13.9604 33.6518 12.0144 35.1279 10.3755 36.2349L9.32802 36.9684C8.98487 37.2204 8.65076 37.4319 8.31214 37.6839C7.44074 38.3275 7.52201 38.071 7.59425 38.665L7.60328 45.6716C7.77937 45.6266 7.9103 45.4826 8.06381 45.3836L12.2899 42.4406C12.5969 42.2111 12.9265 42.0131 13.2335 41.7926C13.545 41.572 13.8521 41.3605 14.1636 41.131L21.6766 35.9019C21.9881 35.6859 22.2996 35.4564 22.6157 35.2449C23.2704 35.6814 25.266 37.2114 26.002 37.7605C26.2864 37.972 26.5618 38.1655 26.8417 38.377C27.1307 38.593 27.4016 38.7955 27.6996 39.016L36.0163 45.1766C36.1607 45.2846 36.084 45.2801 36.2736 45.2936V37.954C36.2736 37.5579 36.1878 37.5984 35.9576 37.4274C35.628 37.1889 35.348 36.9549 35.0139 36.7299C34.1516 36.1449 32.1063 34.5969 31.2394 33.9489C30.1196 33.1118 28.9322 32.3243 27.8667 31.4198C27.4784 31.0913 25.7581 29.9348 25.6227 29.7322H43.8724C43.6692 29.4307 42.414 28.1122 42.098 27.7162C41.6826 27.1987 40.6803 26.1952 40.31 25.7136C40.1023 25.4436 39.8044 25.1826 39.5741 24.9036L38.5176 23.7156C38.4092 23.6031 38.2647 23.3286 38.1067 23.3286H5.91015C5.78373 23.3286 5.34577 23.8551 5.14711 24.0621C5.00715 24.2061 4.95297 24.3096 4.79494 24.4626L0.903003 28.6702C0.740462 28.8637 0.0451501 29.5567 0 29.7322L0 29.7277Z" fill="currentColor"></path><path fill-rule="evenodd" clip-rule="evenodd" d="M50.2891 8.5547V23.2296C50.2891 23.3376 50.3207 23.3691 50.429 23.3691H55.3549V14.1618C55.8606 14.1618 56.1992 14.2158 56.7184 14.2113C56.9893 14.2113 57.0706 14.1618 57.3731 14.1618C59.4861 14.1708 61.8294 14.0268 63.6219 14.9989L64.254 15.3994C65.4821 16.2769 66.1684 17.6854 66.7598 19.0265C67.5093 20.7275 67.419 22.316 67.419 24.1656C67.419 24.9171 67.2204 26.0736 66.963 26.7982C66.4348 28.2742 65.9562 28.9987 64.8048 30.0202C63.2472 31.4018 61.387 31.5278 59.441 31.6898C59.2152 31.7078 58.9263 31.6898 58.6915 31.6898C58.389 31.6898 58.2716 31.7393 57.942 31.7393H50.9528C50.736 31.7393 50.2981 31.6538 50.2981 31.8788V37.1124C50.2981 37.2204 50.3297 37.2519 50.4381 37.2519H61.1793C62.6467 37.2519 64.6378 36.7434 65.9471 36.1629C67.5906 35.4294 69.2837 34.4843 70.4125 33.0893C70.9182 32.4683 71.3968 31.8563 71.7625 31.1183C73.2028 28.2427 73.7491 25.9296 73.7491 22.532C73.7491 19.9535 73.2253 17.7124 72.1056 15.4759C71.8979 15.0619 71.6767 14.7469 71.4419 14.3643C71.1891 13.9593 70.4802 13.0143 70.128 12.6363L69.4959 11.9613C69.0264 11.4933 68.1098 10.7553 67.568 10.4222C67.3784 10.3052 67.2113 10.1882 67.0127 10.0892C66.6199 9.89123 66.2225 9.65723 65.8162 9.50422C63.789 8.7482 62.1771 8.42419 59.8654 8.42419H50.4381C50.3297 8.42419 50.2981 8.4557 50.2981 8.5637" fill="currentColor"></path><path fill-rule="evenodd" clip-rule="evenodd" d="M76.3711 37.2519H92.0382V31.7348H83.1256V11.7318C83.1256 10.6338 83.0804 9.69776 83.0804 8.59973H76.3711V37.2519Z" fill="currentColor"></path><path fill-rule="evenodd" clip-rule="evenodd" d="M112.352 37.2519H120C119.797 36.9459 119.585 36.7029 119.373 36.3834L118.406 35.0559C118.303 34.9074 118.194 34.7859 118.086 34.6239C117.535 33.8093 116.74 32.8013 116.153 31.9688L110.966 24.8901C109.805 23.3466 109.431 23.0496 110.297 21.8795C110.51 21.5915 110.69 21.3215 110.889 21.02L118.853 9.09023C118.944 8.95072 119.093 8.77072 119.106 8.59521H112.212L108.749 14.1214C108.645 14.2789 108.564 14.4229 108.469 14.5894L105.295 19.7015C105.096 20.021 104.916 20.3045 104.712 20.6195C104.509 20.93 104.342 21.245 104.139 21.5465C103.936 21.848 103.76 22.1406 103.548 22.4511C103.331 22.7751 103.141 23.0541 102.929 23.3781C102.825 23.5356 102.721 23.6661 102.622 23.8236C102.477 24.0576 102.599 24.1386 102.73 24.3006L109.787 33.7688C110.352 34.5519 111.191 35.5914 111.711 36.3384C111.837 36.5229 112.311 37.1034 112.347 37.2474" fill="currentColor"></path><path fill-rule="evenodd" clip-rule="evenodd" d="M94.7617 37.2519H101.516V8.73923C101.516 8.63123 101.485 8.59973 101.376 8.59973H94.7617V37.2519Z" fill="currentColor"></path></svg>